<?xml version="1.0" encoding="UTF-8"?>
<svg id="Layer_2" data-name="Layer 2" xmlns="http://www.w3.org/2000/svg" viewBox="0 0 631.53 136.01">
  <defs>
    <style>
      .cls-1 {
        fill: #231f20;
      }
    </style>
  </defs>
  <g id="EXIMIA_3" data-name="EXIMIA 3">
    <g>
      <g>
        <path class="cls-1" d="M58.88,132.06c0,2.84,2.96,4.72,5.53,3.5l51-24.09c3.04-1.44,4.99-4.51,4.98-7.89l-.02-23.87v-1.81s-.06-60.95-.06-60.95c0-3.57-2.31-6.73-5.72-7.81L87.3.46c-5.29-1.68-10.7,2.27-10.69,7.83l.04,38.51c.01,11.07,7.12,20.88,17.63,24.32l23.61,7.78-53.28,21.38c-3.48,1.39-5.75,4.77-5.75,8.51l.02,23.27Z"/>
        <path class="cls-1" d="M61.33,3.85c-.02-2.84-2.99-4.7-5.56-3.47L4.93,24.8C1.9,26.27-.02,29.35,0,32.73l.18,23.87v1.81s.47,60.94.47,60.94c.03,3.57,2.36,6.71,5.77,7.77l27.35,8.51c5.3,1.65,10.68-2.34,10.64-7.89l-.29-38.51c-.08-11.07-7.26-20.83-17.79-24.21l-23.66-7.62,53.14-21.73c3.47-1.42,5.72-4.8,5.69-8.55l-.17-23.27Z"/>
      </g>
      <g>
        <path class="cls-1" d="M245.86,76.39c0-7.48-1.59-14.11-4.78-19.89-3.19-5.77-7.67-10.23-13.44-13.38-5.78-3.14-12.32-4.71-19.62-4.71s-14.28,1.61-20.1,4.85c-5.82,3.23-10.35,7.86-13.59,13.86-3.23,6.01-4.85,12.98-4.85,20.93s1.64,14.79,4.92,20.79c3.28,6.01,7.86,10.65,13.72,13.93,5.87,3.28,12.5,4.92,19.89,4.92,9.15,0,16.86-2.38,23.15-7.14,6.29-4.76,10.54-10.83,12.76-18.22h-20.93c-3.05,6.19-8.18,9.29-15.38,9.29-4.99,0-9.2-1.58-12.62-4.72-3.42-3.14-5.36-7.49-5.82-13.03h56.14c.37-2.22.55-4.71.55-7.49ZM189.31,70.85c.74-5.18,2.75-9.22,6.03-12.13,3.28-2.91,7.32-4.37,12.13-4.37,5.08,0,9.38,1.51,12.89,4.51,3.51,3,5.31,7,5.4,11.99h-36.46Z"/>
        <path class="cls-1" d="M298.82,77.92l25.23-38.26h-20.8l-14.14,23.71-15.66-23.71h-21.9l25.37,38.26-25.09,38.54h20.8l14-23.84,15.8,23.84h21.9l-25.5-38.54Z"/>
        <path class="cls-1" d="M347.28,43.48l-11.59-3.83v76.8h19.41v-62.16c0-4.91-3.15-9.27-7.82-10.81ZM337.91,24.75c-1.36.64-2.22,2-2.22,3.5v11.41l27.33-10.94v-15.8l-25.11,11.83Z"/>
        <path class="cls-1" d="M493.22,47.21c-5.77-5.77-13.37-8.66-22.8-8.66-5.55,0-10.7,1.34-15.45,4.02-4.77,2.68-8.39,6.24-10.89,10.67-2.59-4.72-6.24-8.34-10.94-10.88-4.72-2.54-10.08-3.81-16.08-3.81-4.72,0-9.03.92-12.96,2.78-3.93,1.85-7.14,4.39-9.64,7.62v-9.29h-19.4v76.8h19.4v-42.42c0-6.01,1.55-10.6,4.64-13.79,3.1-3.19,7.32-4.79,12.68-4.79s9.42,1.6,12.47,4.79c3.05,3.19,4.58,7.78,4.58,13.79v42.42h19.4v-42.42c0-6.01,1.55-10.6,4.64-13.79,3.1-3.19,7.27-4.79,12.54-4.79s9.42,1.6,12.48,4.79c3.05,3.19,4.57,7.78,4.57,13.79v42.42h19.4v-45.05c0-10.35-2.89-18.42-8.66-24.19Z"/>
        <path class="cls-1" d="M520.33,19.56v96.9h19.4V19.56h-19.4Z"/>
        <path class="cls-1" d="M596.73,19.56h-22.59l-34.41,95.83-.38,1.07h20.38l6.38-18.44h38.54l6.38,18.44h20.51l-34.79-96.9ZM571.37,82.49l14-40.48,14,40.48h-28Z"/>
      </g>
    </g>
  </g>
</svg>